<?xml version="1.0" encoding="utf-8"?>
<!-- Generator: Adobe Illustrator 15.1.0, SVG Export Plug-In . SVG Version: 6.00 Build 0)  -->
<!DOCTYPE svg PUBLIC "-//W3C//DTD SVG 1.1//EN" "http://www.w3.org/Graphics/SVG/1.1/DTD/svg11.dtd">
<svg version="1.1" id="Layer_1" xmlns="http://www.w3.org/2000/svg" xmlns:xlink="http://www.w3.org/1999/xlink" x="0px" y="0px"
	 width="200px" height="200px" viewBox="0 0 200 200" enable-background="new 0 0 200 200" xml:space="preserve">
<path fill="#52B946" d="M150.227,54.296h-5.396c-2.935,1.001-2.722,2.274-2.722,2.274s-1.43,0.259,3.508,0
	c0.521,13.899-19.479,13.637-23.377,11.817c2.08-5.328,10.648-8.44,18.828-10.584c-39.756,6.04-54.365,50.907-57.661,63.259v0.058
	c0,1.724,1.396,3.114,3.117,3.114h31.559c1.724,0,3.118-1.395,3.118-3.114V92.091h29.025c1.724,0,3.115-1.395,3.115-3.117v-31.56
	C153.343,55.691,151.947,54.296,150.227,54.296z M83.536,130.08c-19.744-15.326-28.833-21.561-28.833-21.561
	s-9.873,8.183,13.117,21.946c1.427,1.039,0.779,2.207,0.779,2.207s-24.676-4.282-25.585-26.104
	c0.779-16.362,5.972-31.688-5.39-34.352c0,0-4.218,26.43-5.52,33.444c-1.299,7.014-3.117,29.353,31.172,45.714
	c17.922,8.572,34.287,25.979,35.583,32.212C100.158,177.094,106.652,146.703,83.536,130.08z"/>
<path fill="#146AA5" d="M131.673,54.296h-10.474V25.268c0-1.721-1.396-3.116-3.118-3.116H86.522c-1.721,0-3.117,1.395-3.117,3.116
	v29.028H54.378c-1.723,0-3.118,1.395-3.118,3.118v31.56c0,1.719,1.395,3.117,3.118,3.117h29.027v6.928
	c6.888-23.262,25.572-33.642,35.652-37.125C122.869,58.022,127.339,55.684,131.673,54.296z M83.274,88.131
	C82.496,70.987,68.6,61.764,68.6,61.764c11.819-1.948,21.041,10.52,22.729,14.677C89.381,77.483,86.392,82.024,83.274,88.131z
	 M95.094,69.945c-3.37,0-6.104-2.733-6.104-6.102c0-3.37,2.734-6.104,6.104-6.104c3.37,0,6.104,2.734,6.104,6.104
	C101.197,67.212,98.464,69.945,95.094,69.945z M172.871,105.664c-1.301-7.014-5.521-33.444-5.521-33.444
	c-11.359,2.663-6.166,17.987-5.389,34.35c-0.913,21.82-25.588,26.104-25.588,26.104s-0.648-1.168,0.781-2.206
	c22.986-13.767,13.117-21.949,13.117-21.949s-9.096,6.234-28.832,21.563c-23.124,16.623-16.627,47.014-15.326,53.51
	c1.3-6.23,17.664-23.64,35.587-32.212C175.988,135.016,174.169,112.678,172.871,105.664z"/>
</svg>
